<?xml version="1.0" standalone="no"?>
<!DOCTYPE svg PUBLIC "-//W3C//DTD SVG 20010904//EN"
 "http://www.w3.org/TR/2001/REC-SVG-20010904/DTD/svg10.dtd">
<svg version="1.0" xmlns="http://www.w3.org/2000/svg"
 width="500.000000pt" height="177.000000pt" viewBox="0 0 500.000000 177.000000"
 preserveAspectRatio="xMidYMid meet">
<metadata>
Created by potrace 1.16, written by Peter Selinger 2001-2019
</metadata>
<g transform="translate(0.000000,177.000000) scale(0.100000,-0.100000)"
fill="#000000" stroke="none">
<path d="M4753 1669 c-6 -20 -11 -21 -127 -18 -67 1 -129 -1 -139 -6 -11 -4
-95 -5 -189 -1 -126 5 -173 4 -184 -5 -10 -8 -50 -10 -139 -6 -81 3 -127 1
-132 -5 -4 -7 -67 -9 -185 -6 -108 3 -181 2 -184 -4 -4 -5 -50 -8 -105 -7 -63
2 -103 -1 -110 -8 -6 -6 -18 -9 -26 -6 -8 3 -23 -4 -34 -15 -10 -12 -25 -19
-32 -16 -7 2 -27 -7 -46 -20 -18 -14 -39 -22 -45 -20 -7 3 -19 -2 -26 -11 -7
-8 -21 -15 -32 -15 -10 0 -21 -7 -24 -15 -4 -8 -10 -13 -14 -10 -11 7 -60 -16
-60 -27 0 -5 -5 -6 -12 -2 -6 4 -16 0 -23 -9 -12 -17 -85 -52 -85 -42 0 3 -13
-1 -30 -10 -16 -8 -37 -15 -46 -15 -16 0 -90 -44 -104 -61 -6 -7 -67 -39 -75
-39 -21 1 -26 -1 -21 -8 5 -9 -32 -7 -57 3 -18 8 -71 -20 -63 -33 2 -4 -11 -7
-30 -8 -19 0 -34 3 -34 8 0 5 -22 6 -50 2 -37 -5 -50 -3 -50 6 0 10 -14 11
-55 6 -33 -4 -55 -2 -55 3 0 6 -39 9 -95 7 -53 -2 -97 0 -100 4 -2 4 -73 8
-157 9 -84 0 -196 4 -249 7 -67 4 -98 3 -103 -5 -4 -6 -33 -11 -64 -11 -31 0
-74 -4 -94 -9 -22 -5 -38 -5 -38 0 0 5 -4 9 -10 9 -5 0 -10 -7 -10 -16 0 -12
-10 -15 -42 -13 -24 1 -50 -1 -58 -4 -41 -14 -155 -26 -166 -16 -8 7 -14 7
-19 -1 -3 -5 -20 -10 -36 -10 -17 0 -28 -4 -25 -9 4 -5 -3 -7 -14 -4 -12 3
-20 0 -20 -7 0 -7 -8 -9 -19 -5 -11 3 -22 1 -25 -4 -4 -6 -13 -8 -20 -5 -8 3
-17 0 -21 -5 -3 -6 -10 -9 -15 -6 -5 3 -11 1 -14 -4 -3 -5 -15 -7 -26 -4 -11
3 -20 0 -20 -6 0 -5 -7 -8 -15 -5 -8 4 -15 1 -15 -5 0 -6 -7 -8 -15 -5 -8 4
-15 1 -15 -6 0 -6 -4 -9 -9 -6 -11 7 -71 -13 -71 -25 0 -4 -7 -6 -15 -3 -8 4
-15 1 -15 -6 0 -6 -4 -9 -9 -6 -11 7 -112 -29 -112 -40 0 -11 -42 -34 -72 -39
-11 -3 -23 -9 -27 -15 -4 -6 -17 -13 -31 -15 -13 -3 -31 -13 -39 -22 -9 -10
-22 -19 -30 -21 -7 -2 -26 -12 -41 -23 -15 -10 -31 -19 -37 -19 -5 0 -15 -6
-22 -14 -6 -8 -19 -12 -27 -9 -12 5 -15 2 -10 -10 3 -9 1 -19 -5 -23 -7 -5 -8
-2 -3 6 5 9 4 11 -3 6 -18 -11 -14 -61 6 -79 15 -13 50 -16 222 -18 113 0 209
-4 215 -7 5 -3 20 -7 34 -8 14 -2 38 -12 53 -24 16 -11 34 -18 40 -14 7 4 8 3
4 -4 -7 -12 -6 -13 30 -17 12 -1 31 -12 43 -24 12 -12 26 -19 31 -16 5 3 14
-4 20 -15 6 -11 14 -20 19 -20 5 0 26 -16 47 -35 21 -19 44 -35 51 -35 8 0 16
-7 19 -15 4 -8 12 -15 19 -15 7 0 24 -12 39 -27 14 -14 29 -23 33 -20 3 4 11
0 17 -8 6 -8 20 -16 31 -18 11 -1 29 -8 39 -14 10 -6 27 -8 37 -6 11 3 19 0
19 -6 0 -8 62 -11 209 -11 117 0 212 -4 216 -9 3 -6 174 -7 426 -4 l420 6 6
-22 c3 -12 11 -20 18 -17 8 3 11 -2 8 -15 -4 -13 2 -21 21 -29 14 -5 26 -12
26 -15 0 -4 -6 -3 -12 0 -7 4 -6 1 2 -7 9 -7 14 -22 12 -32 -3 -13 0 -17 10
-13 8 3 15 -1 15 -9 0 -7 -4 -11 -9 -8 -5 4 -4 -3 4 -15 7 -12 17 -19 23 -17
16 6 44 -25 38 -42 -5 -12 -2 -14 11 -9 10 4 22 7 27 7 5 0 9 5 9 10 0 6 -7
10 -14 10 -8 0 -26 15 -40 32 -39 53 -196 311 -196 324 0 21 68 73 112 86 57
17 302 17 396 0 l72 -14 0 -122 c0 -140 6 -153 78 -163 28 -4 39 -10 35 -18
-11 -31 29 -43 387 -122 41 -9 91 -20 110 -24 36 -8 -457 -3 -727 7 -98 4
-153 3 -153 -4 0 -17 41 -22 197 -22 86 0 154 -4 158 -10 3 -6 87 -7 221 -3
167 5 220 3 239 -7 17 -9 46 -11 93 -7 66 5 70 5 80 -19 12 -26 52 -34 52 -10
0 11 13 13 60 9 41 -4 60 -2 60 6 0 18 -41 53 -56 47 -8 -3 -14 -1 -14 4 0 6
-6 10 -13 10 -7 0 -19 9 -27 20 -17 23 -33 25 -49 7 -14 -17 -2 -30 15 -16 18
15 27 -6 19 -47 -4 -26 -11 -34 -23 -32 -13 2 -16 12 -14 35 3 24 -2 34 -17
43 -14 7 -21 7 -21 0 0 -5 -9 -10 -20 -10 -11 0 -20 5 -20 11 0 6 -7 8 -16 5
-10 -4 -13 -2 -8 6 5 7 -1 9 -20 6 -14 -3 -29 -1 -32 4 -3 5 -14 6 -25 3 -11
-4 -19 -2 -19 5 0 7 -8 10 -20 7 -12 -3 -18 -1 -14 5 5 7 -3 9 -22 5 -16 -3
-41 1 -57 10 -16 8 -38 13 -48 10 -10 -3 -20 1 -23 9 -3 8 -13 14 -21 14 -9 0
-13 -5 -10 -10 9 -14 -43 -2 -73 17 -13 8 -32 11 -42 8 -12 -4 -26 0 -34 8
-13 13 -4 15 67 19 45 3 85 1 88 -4 3 -5 38 -7 77 -5 56 4 69 2 65 -9 -3 -7 2
-20 10 -29 16 -16 47 -21 47 -7 0 4 34 6 75 4 41 -2 75 0 75 5 -1 19 -18 35
-30 28 -9 -6 -11 -4 -5 5 6 10 4 12 -8 7 -10 -4 -24 2 -36 14 -12 13 -25 18
-33 13 -7 -4 -10 -3 -5 1 9 10 -21 45 -39 45 -7 0 -14 -5 -16 -12 -6 -17 -76
-17 -83 0 -3 9 -13 12 -25 9 -11 -3 -20 -1 -20 5 0 6 -7 8 -15 4 -8 -3 -15 -1
-15 5 0 6 -7 9 -15 5 -8 -3 -15 -1 -15 5 0 6 -7 9 -15 5 -8 -3 -15 0 -15 5 0
6 -9 9 -20 6 -24 -6 -36 8 -14 17 8 3 13 10 9 15 -3 6 0 13 8 18 7 4 18 20 24
35 13 30 32 35 50 17 18 -18 40 -4 58 35 10 20 23 36 31 36 19 0 85 60 78 71
-3 5 3 9 12 9 10 0 25 7 35 16 16 15 19 13 43 -24 30 -48 65 -62 156 -62 63 0
70 2 105 34 20 19 35 39 31 44 -3 5 3 20 15 33 11 12 17 29 15 36 -3 7 -1 15
5 19 6 3 8 13 5 21 -4 9 -2 11 5 7 8 -5 10 5 7 30 -2 20 -2 36 2 36 8 0 6 164
-4 178 -4 7 -15 11 -23 8 -8 -3 -11 -1 -8 4 4 6 -35 8 -101 5 -59 -3 -110 -9
-113 -14 -3 -5 -15 -11 -26 -13 -11 -1 -22 -5 -25 -8 -3 -3 -14 -10 -25 -17
-11 -6 -19 -16 -18 -22 2 -6 -2 -11 -7 -11 -19 0 -25 5 -22 18 2 6 -2 12 -7
12 -6 0 -8 7 -5 15 3 8 11 13 17 12 6 -1 13 8 15 21 3 17 -2 25 -17 29 -23 6
-27 18 -8 26 6 3 21 22 32 43 11 22 26 45 33 52 7 8 10 17 7 22 -3 4 2 11 11
14 8 3 12 10 9 16 -3 5 -1 10 5 10 6 0 9 4 5 9 -9 15 34 39 57 33 14 -3 19 -1
14 6 -5 8 -2 10 8 6 9 -3 16 -1 16 5 0 6 7 8 15 5 8 -4 15 -2 15 4 0 6 9 8 20
5 11 -3 20 0 20 6 0 5 6 8 14 5 8 -3 17 -1 20 5 4 6 13 8 21 4 8 -3 15 0 15 6
0 6 7 8 15 5 8 -4 15 -2 15 4 0 6 10 8 22 4 13 -3 19 -1 15 5 -5 7 0 9 13 6
11 -3 20 0 20 6 0 5 7 8 15 5 8 -4 15 -2 15 2 0 5 14 10 32 10 18 1 34 6 36
12 1 5 12 8 22 5 11 -3 20 -1 20 5 0 6 10 8 22 4 14 -3 19 -1 14 6 -5 8 -2 10
8 6 9 -3 16 -2 16 4 0 6 9 8 20 5 11 -3 20 -1 20 5 0 6 8 8 19 5 10 -2 25 2
32 10 7 8 22 12 33 9 12 -3 17 -1 13 5 -5 7 0 9 13 6 11 -3 20 0 20 6 0 5 7 8
15 5 8 -4 15 -2 15 4 0 5 11 7 25 4 14 -2 25 0 25 6 0 5 6 9 13 9 22 -1 77 15
77 23 0 5 9 6 20 3 11 -3 20 -1 20 5 0 6 8 8 19 5 10 -2 25 2 32 10 7 8 21 12
31 9 10 -2 18 1 18 7 0 7 4 9 10 6 13 -8 93 14 102 28 3 5 20 10 37 9 29 -1
31 1 31 38 0 43 12 57 30 36 15 -19 9 -81 -7 -81 -19 0 -17 -19 1 -23 9 -2 16
3 16 12 0 9 7 16 16 16 9 0 12 5 8 12 -5 8 -2 9 9 5 10 -3 17 -2 17 3 0 5 7 7
15 4 8 -4 15 -1 15 5 0 6 7 8 15 5 8 -4 15 -1 15 6 0 6 5 8 10 5 15 -9 12 4
-4 21 -8 8 -34 14 -60 14 -25 0 -48 5 -51 10 -12 19 -57 11 -62 -11z m-1023
-80 c-25 -4 -137 -18 -250 -30 -197 -20 -299 -39 -167 -31 50 3 72 0 104 -17
22 -11 44 -17 48 -13 3 4 5 2 4 -3 -2 -6 10 -30 26 -54 25 -38 30 -54 30 -107
0 -35 -5 -68 -10 -73 -8 -8 -10 9 -7 54 4 55 1 70 -21 107 -50 86 -168 119
-250 70 -37 -21 -48 -18 -24 7 10 11 8 11 -10 2 -16 -8 -28 -8 -47 0 -20 9
-29 9 -41 -1 -9 -7 -14 -19 -11 -26 6 -17 -17 -31 -149 -88 -110 -49 -195 -87
-291 -132 -41 -19 -59 -23 -89 -16 -36 7 -25 13 322 175 l360 168 219 8 c120
4 237 8 259 8 l40 1 -45 -9z m-315 -112 c51 -29 85 -87 85 -149 0 -53 -10 -64
-40 -46 -13 8 -20 23 -20 43 0 36 -31 89 -61 106 -13 7 -41 9 -70 6 -38 -5
-53 -2 -70 12 l-23 18 30 16 c43 24 121 21 169 -6z m-179 -47 c38 -26 87 -50
107 -54 39 -7 51 -26 17 -26 -17 0 -19 -3 -10 -19 12 -23 0 -34 -26 -24 -14 5
-16 2 -12 -21 5 -26 5 -26 -13 -10 -11 9 -19 23 -19 31 0 8 -13 27 -28 41 -16
15 -52 49 -80 76 -50 47 -60 72 -24 59 9 -3 49 -27 88 -53z m-20 -86 c-10 -25
15 -84 43 -104 38 -26 100 -26 134 0 25 20 25 20 48 0 13 -11 19 -19 12 -20
-6 0 -15 5 -18 10 -3 6 -11 10 -17 10 -6 0 -3 -9 8 -21 18 -20 18 -21 -1 -35
-98 -72 -251 -3 -270 121 -4 22 -2 53 5 69 l11 29 25 -24 c13 -12 22 -29 20
-35z m-1013 -119 c160 -15 192 -22 227 -45 8 -6 242 -59 520 -118 l505 -107 3
-53 c2 -36 -1 -54 -10 -57 -7 -3 -764 -4 -1682 -3 l-1670 3 80 53 c78 51 82
52 152 52 40 0 72 4 72 8 0 17 48 30 128 37 73 7 81 9 85 31 5 28 -2 39 -30
48 -27 9 -30 21 -5 23 9 0 74 17 145 36 193 55 403 86 732 111 108 8 589 -4
748 -19z m557 -45 c618 -130 692 -147 700 -160 13 -20 0 -40 -25 -40 -13 0
-162 29 -332 65 -169 36 -384 82 -478 101 -178 38 -205 47 -205 67 0 20 22 38
40 32 8 -2 143 -31 300 -65z m1017 -287 c-10 -128 -45 -239 -95 -295 -31 -36
-118 -14 -165 42 -24 28 -26 35 -14 49 39 44 47 128 18 183 -17 34 -17 39 -3
59 24 35 70 48 171 49 l94 0 -6 -87z m-437 -151 c0 -11 -181 -122 -199 -122
-9 0 -69 14 -135 30 -307 78 -558 74 -676 -10 -30 -22 -36 -22 -203 -15 -240
9 -541 32 -677 50 -126 18 -280 52 -294 66 -6 5 442 9 1087 9 603 0 1097 -4
1097 -8z m-425 -86 c66 -14 177 -44 248 -66 107 -34 127 -44 127 -61 0 -11 -7
-22 -15 -26 -9 -3 -78 13 -155 36 -220 66 -323 84 -490 85 -155 1 -196 -7
-261 -50 -19 -13 -46 -42 -58 -64 -16 -30 -29 -40 -47 -40 -67 0 9 126 106
176 70 35 129 44 280 40 104 -3 179 -12 265 -30z"/>
<path d="M1014 1127 c-17 -15 -26 -33 -26 -52 0 -33 41 -75 73 -75 28 0 69 44
69 75 0 31 -41 75 -69 75 -11 0 -32 -10 -47 -23z"/>
<path d="M1265 1125 c-40 -39 -29 -97 22 -116 62 -23 119 40 89 99 -25 49 -72
56 -111 17z"/>
<path d="M1526 1128 c-54 -49 -23 -128 50 -128 24 0 64 47 64 75 0 31 -41 75
-69 75 -11 0 -31 -10 -45 -22z"/>
<path d="M1792 1143 c-7 -3 -19 -18 -28 -35 -12 -24 -13 -36 -4 -58 11 -27 46
-50 76 -50 24 0 64 47 64 75 0 49 -60 87 -108 68z"/>
<path d="M2182 1128 c-16 -16 -16 -130 0 -146 7 -7 33 -12 58 -12 25 0 51 5
58 12 7 7 12 39 12 73 0 34 -5 66 -12 73 -7 7 -33 12 -58 12 -25 0 -51 -5 -58
-12z m113 -73 l0 -60 -55 0 -55 0 -3 49 c-5 72 -1 78 60 74 l53 -3 0 -60z"/>
<path d="M2410 1010 c-12 -23 -11 -96 2 -122 8 -17 32 -18 281 -18 150 0 278
4 285 9 9 5 12 28 10 77 l-3 69 -282 3 c-274 2 -282 2 -293 -18z m565 -12 c3
-13 4 -41 3 -63 l-3 -40 -278 -3 -277 -2 0 58 c0 32 3 62 7 65 3 4 127 7 274
7 l269 0 5 -22z"/>
</g>
</svg>
